<svg width="32" height="18" viewBox="0 0 32 18" fill="none" xmlns="http://www.w3.org/2000/svg">
<path d="M8.96487 17.9552C3.92814 17.938 -0.0252995 13.9074 0.00012191 8.81494C0.0247233 3.94223 4.12003 -0.0374562 9.07311 0.000265973C14.082 0.0379881 18.0215 4.05457 18.0026 9.10442C17.9846 13.9919 13.9196 17.9724 8.96487 17.9552Z" fill="white"/>
<path d="M27.9965 8.98106C27.9268 11.023 27.6119 12.9968 26.673 14.8091C26.3031 15.5226 25.7898 16.2065 25.2026 16.7535C24.0316 17.8449 22.5334 17.7867 21.3525 16.7075C20.0658 15.5316 19.4631 13.9866 19.1007 12.3392C18.4184 9.23774 18.5561 6.18635 19.9166 3.27928C20.2659 2.53222 20.8006 1.82944 21.3894 1.24721C22.5006 0.148347 23.9939 0.149987 25.1829 1.1611C26.5983 2.36493 27.2126 4.01405 27.5734 5.7591C27.7923 6.81614 27.8604 7.90516 27.9965 8.98106Z" fill="white"/>
<path d="M32 8.99738C31.6909 11.1082 31.417 13.1837 31.0644 15.2461C30.9692 15.8021 30.8241 16.6361 30.1131 16.5631C29.7613 16.527 29.3464 15.7595 29.2045 15.2543C28.473 12.6474 28.3295 9.9675 28.5353 7.28349C28.6526 5.75082 28.915 4.22389 29.2012 2.71173C29.3045 2.16312 29.4366 1.31847 30.1566 1.39555C30.5075 1.43327 30.9594 2.20494 31.0504 2.70189C31.4309 4.78234 31.6925 6.88494 32 8.99738Z" fill="white"/>
</svg>
